<svg viewBox="141.599 147.665 93.965 117.43" xmlns="http://www.w3.org/2000/svg"><path d="m.51773936 47.50082.28223622-.00164032.277304-.00164413.4306842-.00815201.3147756-.00650787.3045001-.00979614.3768401-.01472855.4012959-.01787949.648664-.0358963.3768401-.02610016.3262844-.02610016.6601038-.05548859.38821173-.03754044.5883117-.06377792.49103642-.05870819.5867362-.07850647.53337145-.07500839.5002842-.07850647.47630787-.07830048.43479443-.0752182.42739677-.07830048.63400364-.12577057.49432468-.10440064.44835758-.09967423.4828844-.11097717.7086735-.17468262.46329212-.12091065.6176996-.16838455.6198921-.17618942.5900936-.17961884.6117401-.19407272.6437998-.2109909.48610306-.16968536.69127464-.25175095.6166725-.23161316.8704796-.34765625.7073021-.2972374.586462-.25503922.56933594-.25771332.59954643-.2825775.48288536-.23490143.42342186-.21256638.5040531-.25778198.48062325-.25339508.45513916-.24956131.49864006-.27928925.4600048-.26285172.4953518-.292511.5383034-.32463837.5033684-.3168335.7006569-.45075607.61660385-.4130783.73682976-.514328.92905045-.67448807.7312107-.56152725.6209202-.49007797.6628437-.5437126.4998722-.42321777.2822361-.24469757.37101746-.32826996.321352-.2888832.3887596-.35923386.4491806-.42123032.3719101-.35923386.548851-.5437851.47192383-.48171997.5080261-.5354271.4926796-.5356331.49501038-.5551548.48500824-.55844307.4833641-.58125687.40780258-.5029545.52926254-.6695576.6238632-.827734.52905655-.73319817.47850037-.6890812.43232727-.64510155.5816002-.90945816.37903214-.6155758.43280792-.72984123.28059006-.4882965.40198135-.7348404.282238-.5274124.21859741-.42609406.26963043-.5307007.30401993-.62859154.3653984-.78717804.1745491-.38698006.32169342-.7445698.2381897-.57310295.35320663-.8932228.25613403-.6809292.25031662-.70702934.18920517-.558444.19578552-.5976286.17126083-.5518675.2094841-.7086735.16317749-.57474804.19406891-.7413492.2175026-.88178253.154953-.68271065.11584091-.5439892.09789276-.48788548.11906052-.62694836.09789276-.56330776.0759697-.46075726.08152008-.5272746.07830048-.5616641.07014847-.5404959.04733658-.3902669.06035233-.56001997.03424835-.34786272.03260803-.36574268.02938843-.35594654.02931976-.37553835.02610016-.375607.02445602-.41958666.0326767-.66791344.01301575-.34450626.00815201-.3429308.00815201-.373963.00979614-.87685037.00164413.47630787.00979614.56659615.01465988.5616636.01959229.5030246.01959229.37389445.02774429.48829603.0309639.44890618.04076004.5128205.03103256.36738682.04562378.4587021.04459381.41958666.06199646.5339885.06850433.525836.07830048.56001997.08323288.54700375.11419678.6940136.10816574.59920406.1435852.73484135.12399292.58954525.14351654.6383877.12125015.5078888.14844894.58940697.18920898.7136059.21694946.76738167.17386246.5845432.22510529.7103176.18270111.55515575.23709106.67771053.27072906.74785614.09357452.24195671.1027565.27079582.14194107.3593712.16146088.40657043.15009308.3640995.16365814.38554.21201706.48500824.14687347.33114815.15056992.3333397.15988922.34108162.17783737.37088013.15043259.30703354.18920898.38677406.2414093.47363663.23565292.4556198.21202087.3967743.21208572.38368988.27004242.48343277.1794815.31210327.2723732.46199036.22058105.3688259.26428986.43123245.19482422.31176186.23654175.36896133.22401047.3412876.2495575.377182.27627945.40328217.2626419.37903214.2385292.33964348.24627304.34115028.29908752.4034195.32299805.42938232.316967.40979004.41472244.5241928.33642197.41472244.48171997.5714588.27114105.31703758.31648636.36231613.27949524.31518745.31970978.35108185.29237366.31518555.30374527.32169724.35923767.36903.3105278.31991196.33964157.34128952.31806183.30867767.4573326.4358902.42301178.39513016.48665237.44246674.4848709.4246559.46199417.39691162.51439667.43102646.45890808.37231827.55049133.43424988.582901.44753265.6397629.47356796.45095825.3215599.40328217.2825775.3849945.26586533.41485596.2778511.38828278.25613403.41815186.2662773.5355606.3365593.46329498.27894974.4673996.2778511.45513916.2626419.48542023.2731247.54898834.29867935.6573639.34423065.5796814.29415512.71045685.34923553.80005646.37231827.56043243.25154495.4958954.21373367.6629791.27600098.6824417.26812744.69599915.26764297.2786026.103508.15852356.05638123.13111115.04603577.8342438.2903862.8033447.26298523.8736267.26442719.6972351.20098877 1.0253677.274086.93720245.2254448.88993835.20106125.619545.12556839.3572464.0668602.39315033.07507706.5995407.10296249.7525177.12084198.5557709.07830048.44602966.0605545.65579224.08158875.68270874.07172394.68099976.06240845.51384735.04076004.5752945.04076004.64338684.03425217.49590302.02288055.50151825.01630402.274765.00486374.4926834.00815201.50110626.00164413-.25935364.00164413-.41596222.00328827-.42246246.00815201-.33203888.00979614-.2953186.00972748-.4306183.01794815-.3942337.01959229-.44041443.02609634-.34259033.02123642-.4592514.0358963-.47795105.04076004-.57837677.05727005-.28059387.02774429-.325531.03767777-.2805252.03425217-.36382294.04733658-.20968628.02767563-.36211395.05062485-.27641296.03911591-.27565765.04281235-.3768463.06035233-.19181061.0309639-.2740097.04733658-.22024536.03911591-.18592072.03260803-.22914124.04247284-.33437347.06521606-.32045746.06233597-.28381348.06035233-.274086.05548859-.33203888.07665634-.34292603.07665634-.17455292.03918457-.15008545.0358963-.28401947.07049179-.33930206.0831604-.34669495.08830261-.33766174.09131622-.29257965.07830048-.32621002.09138489-.4083557.11782455-.29524994.08802795-.40547943.12419891-.40944672.1305008-.30065918.09645081-.2887497.09617996-.31902313.10803223-.35437012.12234879-.14680481.05384445-.15001678.05220032-.16009521.05891037-.3164215.11741638-.28443146.10625076-.28216553.10926437-.20968628.08014679-.22839355.08974075-.3376541.13557053-.21284485.08843994-.26257324.10926056-.30347443.12885666-.23236847.09988022-.28709412.12563705-.31156158.14193726-.35813904.16180801-.37519073.17290497-.35450745.17132568-.47850037.23360062-.3327942.16804123-.37101746.18954849-.45835876.23983383-.35307312.18975449-.3816986.2104454-.28785706.16022873-.3360138.19249725-.62550354.36574173-.64489746.39019775-.6040726.3821144-.42472076.27134705-.63365936.42444992-.6807251.47000504-.7854004.56495285-.72662354.5420685-.12467194.09775543-.12070465.09131622-.16475677.12961197-.51459503.40999603-.42904663.3490944-.37443542.31210327-.32621765.2773056-.30415726.26332855-.31970978.28387833-.35615158.31840897-.41759872.3821144-.30744553.29072952-.31477737.3001175-.4130783.40526962-.3018303.30018234-.4280777.43623352-.5519371.582901-.58125687.6318779-.5716667.64489746-.4246559.49966812-.46870422.5633087-.2626419.3234024-.26586533.3314972-.48994064.6350937-.46870422.6253052-.3724556.51439667-.38067627.54447174-.07172394.09789276-.09953308.14680481-.14392853.21510315-.29846954.44267273-.3023796.46541595-.18427277.28874207-.3545761.56837463-.35889435.5959854-.33512115.57653046-.29689407.52583313-.28381348.5141907-.32861328.6203766-.30210114.5926895-.29073334.58475494-.30182648.63674164-.3053894.6629791-.11940384.2696991-.14844894.33766174-.2353096.55371094-.20715714.5076828-.29072952.7429962-.21530914.5748825-.18920898.5223465-.20448303.58145905-.23160934.6987381-.16201401.51439667-.14844894.48178864-.13214111.45541382-.14413452.51439667-.12556839.4638443-.15337753.599205-.15495682.63023376-.09186554.40033722-.07508087.32957458-.10761643.514534-.10118103.49952698-.10440064.5470047-.08967209.49973297-.07884598.47192383-.09789276.6269531-.07501221.52905273-.07343674.55522156-.05706406.49316406-.05055618.45383453-.04247284.42616272-.04240418.46055603-.0358963.463768-.03582764.5207672-.03432083.5846863-.02500153.5682373-.01794815.5355606-.00815201.42617035-.00815201.72332764-.00164413.1472168-.00157547-.4486313-.0049324-.3755417-.00815201-.37231445-.00650787-.24681854-.01144028-.3525238-.01465988-.35923767-.01959229-.377182-.01959229-.33641815-.02116776-.3478012-.02445602-.33312988-.02452469-.31669617-.02931976-.35923004-.03918457-.40000153-.03425217-.34779358-.05220032-.46041107-.03425217-.29579926-.05541992-.43917847-.03973007-.28922272-.05220032-.3605423-.05384445-.3625183-.07501221-.47850037-.05713272-.34293365-.0668602-.37875366-.07336807-.39513397-.0607605-.31375122-.06035233-.30339813-.06850433-.32176208-.08809662-.4148636-.06035233-.27257538-.09131622-.4001999-.11912537-.48815918-.09350967-.37225342-.11419678-.43938446-.12234879-.45548248-.13536072-.46849823-.07563019-.26319122-.12885666-.4358902-.16310501-.5207672-.17783737-.54857635-.17181015-.5080948-.16639328-.47343445-.17126083-.47013855-.10659409-.29093933-.20715332-.5353546-.22996902-.5796814-.18489075-.4473343-.25778198-.60406494-.20879745-.47528076-.21894073-.48007202-.1669426-.35944366-.22346115-.46527863-.2854538-.5747452-.23873901-.4717865-.3017578-.57310486-.30052948-.5519409-.2696991-.4833603-.30011368-.5225525-.24853516-.41979218-.3653984-.5973511-.15639496-.25175476-.07994461-.13049316-.17201233-.26628113-.39040375-.599205-.3447113-.51438904-.3099823-.45062256-.316967-.44404602-.23832321-.3300476-.17297363-.23654175-.2647667-.34964752-.31155777-.41143036-.22729492-.29415894-.2691536-.33930206-.32354355-.4001999-.35073853-.42287445-.29902267-.3559456-.32847595-.38225174-.26914978-.30340576-.27134323-.30395126-.34902954-.3821144-.24051666-.25647736-.3653984-.385334-.3610878-.3755417-.3800583-.38204575-.5050125-.49644852-.29196167-.28059006-.3530693-.3333397-.27079773-.24956131-.26805496-.24359894-.30175972-.27079773-.38389587-.33820343-.26757622-.23161316-.3318329-.28113937-.33279228-.27565765-.39204788-.32334137-.3399849-.26976776-.39643288-.30990982-.42951965-.33005524-.32957268-.24791336-.35615158-.25997162-.3604679-.25771332-.39876175-.2860031-.35560417-.24305344-.3291607-.22400665-.33279228-.22188568-.39472008-.25969696-.46726418-.2972374-.34423256-.21537781-.43301392-.26462936-.5813923-.34450912-.6302376-.35943985-.3963623-.22023773-.5050125-.27442932-.4241066-.22510147-.54083824-.27456665-.5944786-.29710007-.56173134-.27113724-.56837654-.25970078-.595438-.26593018-.6811333-.29073334-.83465195-.3412857-.47795296-.18592072-.630373-.23688507-.9454222-.33642197-.23764038-.08028793-.5888605-.19414139-.48843288-.15372086-.44048023-.13536453-.52939796-.15495682-.46815586-.13214111-.84102345-.22387314-1.0173521-.24811935-.7838898-.17146683-.8362961-.17160034-.42739677-.08158875-.5426874-.09645462-.5692682-.09296036-.59159994-.09316635-.477952-.06521606-.54248285-.07343292-.52199984-.06199646-.49898243-.05233765-.51549244-.05062485-.6601038-.05541992-.321352-.02445602-.36540008-.02452469-.47075891-.02610016-.4396584-.02116776-.707988-.02610016-.28655207-.00650787-.5007638-.00822067z" fill-rule="evenodd" transform="translate(141.081301 147.136675)"/></svg>
